REM DIRINDEX 1\2,1\3,1\4,1\5
REM DIRNAME "folder01","folder02","folder03","folder04","folder05"
TITLE ""
FILE "1Q_t_1079-1088.mp3" MP3
  TRACK 01 AUDIO
    TITLE "3:cjc172_4198"
    INDEX 01 00:00:00
  TRACK 02 AUDIO
    TITLE "0:"
    INDEX 01 00:00:75
  TRACK 03 AUDIO
    TITLE "4:cjc172_4199"
    INDEX 01 00:01:10
  TRACK 04 AUDIO
    TITLE "0:"
    INDEX 01 00:03:46
  TRACK 05 AUDIO
    TITLE "5:cjc172_4200"
    INDEX 01 00:03:52
  TRACK 06 AUDIO
    TITLE "0:"
    INDEX 01 00:08:27
  TRACK 07 AUDIO
    TITLE "3:cjc172_4201"
    INDEX 01 00:08:74
  TRACK 08 AUDIO
    TITLE "0:"
    INDEX 01 00:10:22
  TRACK 09 AUDIO
    TITLE "4:cjc172_4202"
    INDEX 01 00:10:30
  TRACK 10 AUDIO
    TITLE "0:"
    INDEX 01 00:12:68
  TRACK 11 AUDIO
    TITLE "5:cjc172_4203"
    INDEX 01 00:13:01
  TRACK 12 AUDIO
    TITLE "0:"
    INDEX 01 00:16:49
  TRACK 13 AUDIO
    TITLE "3:cjc172_4204"
    INDEX 01 00:17:19
  TRACK 14 AUDIO
    TITLE "0:"
    INDEX 01 00:18:53
  TRACK 15 AUDIO
    TITLE "4:cjc172_4205"
    INDEX 01 00:18:65
  TRACK 16 AUDIO
    TITLE "0:"
    INDEX 01 00:21:40
  TRACK 17 AUDIO
    TITLE "5:cjc172_4206"
    INDEX 01 00:21:46
  TRACK 18 AUDIO
    TITLE "0:"
    INDEX 01 00:27:58
  TRACK 19 AUDIO
    TITLE "3:cjc172_4207"
    INDEX 01 00:28:28
  TRACK 20 AUDIO
    TITLE "0:"
    INDEX 01 00:29:41
  TRACK 21 AUDIO
    TITLE "4:cjc172_4208"
    INDEX 01 00:29:49
  TRACK 22 AUDIO
    TITLE "0:"
    INDEX 01 00:32:69
  TRACK 23 AUDIO
    TITLE "5:cjc172_4209"
    INDEX 01 00:32:75
  TRACK 24 AUDIO
    TITLE "0:"
    INDEX 01 00:37:11
  TRACK 25 AUDIO
    TITLE "3:cjc172_4210"
    INDEX 01 00:37:57
  TRACK 26 AUDIO
    TITLE "0:"
    INDEX 01 00:38:68
  TRACK 27 AUDIO
    TITLE "4:cjc172_4211"
    INDEX 01 00:39:01
  TRACK 28 AUDIO
    TITLE "0:"
    INDEX 01 00:41:74
  TRACK 29 AUDIO
    TITLE "5:cjc172_4212"
    INDEX 01 00:42:03
  TRACK 30 AUDIO
    TITLE "0:"
    INDEX 01 00:46:59
  TRACK 31 AUDIO
    TITLE "3:cjc172_4213"
    INDEX 01 00:47:29
  TRACK 32 AUDIO
    TITLE "0:"
    INDEX 01 00:48:37
  TRACK 33 AUDIO
    TITLE "4:cjc172_4214"
    INDEX 01 00:48:43
  TRACK 34 AUDIO
    TITLE "0:"
    INDEX 01 00:49:66
  TRACK 35 AUDIO
    TITLE "5:cjc172_4215"
    INDEX 01 00:49:73
  TRACK 36 AUDIO
    TITLE "0:"
    INDEX 01 00:54:08
  TRACK 37 AUDIO
    TITLE "3:cjc172_4216"
    INDEX 01 00:54:55
  TRACK 38 AUDIO
    TITLE "0:"
    INDEX 01 00:56:03
  TRACK 39 AUDIO
    TITLE "4:cjc172_4217"
    INDEX 01 00:56:13
  TRACK 40 AUDIO
    TITLE "0:"
    INDEX 01 00:57:18
  TRACK 41 AUDIO
    TITLE "5:cjc172_4218"
    INDEX 01 00:57:26
  TRACK 42 AUDIO
    TITLE "0:"
    INDEX 01 01:02:25
  TRACK 43 AUDIO
    TITLE "3:cjc172_4219"
    INDEX 01 01:02:70
  TRACK 44 AUDIO
    TITLE "0:"
    INDEX 01 01:04:16
  TRACK 45 AUDIO
    TITLE "4:cjc172_4220"
    INDEX 01 01:04:24
  TRACK 46 AUDIO
    TITLE "0:"
    INDEX 01 01:06:23
  TRACK 47 AUDIO
    TITLE "5:cjc172_4221"
    INDEX 01 01:06:29
  TRACK 48 AUDIO
    TITLE "0:"
    INDEX 01 01:10:11
  TRACK 49 AUDIO
    TITLE "3:cjc172_4222"
    INDEX 01 01:10:54
  TRACK 50 AUDIO
    TITLE "0:"
    INDEX 01 01:12:12
  TRACK 51 AUDIO
    TITLE "4:cjc172_4223"
    INDEX 01 01:12:18
  TRACK 52 AUDIO
    TITLE "0:"
    INDEX 01 01:16:49
  TRACK 53 AUDIO
    TITLE "5:cjc172_4224"
    INDEX 01 01:16:57
  TRACK 54 AUDIO
    TITLE "0:"
    INDEX 01 01:22:30
  TRACK 55 AUDIO
    TITLE "3:cjc172_4225"
    INDEX 01 01:22:75
  TRACK 56 AUDIO
    TITLE "0:"
    INDEX 01 01:24:11
  TRACK 57 AUDIO
    TITLE "4:cjc172_4226"
    INDEX 01 01:24:21
  TRACK 58 AUDIO
    TITLE "0:"
    INDEX 01 01:26:39
  TRACK 59 AUDIO
    TITLE "5:cjc172_4227"
    INDEX 01 01:26:47
  TRACK 60 AUDIO
    TITLE "0:"
    INDEX 01 01:32:22
